<?xml version="1.0" encoding="UTF-8" standalone="no"?>
<!DOCTYPE svg PUBLIC "-//W3C//DTD SVG 1.1//EN" "http://www.w3.org/Graphics/SVG/1.1/DTD/svg11.dtd">
<svg width="100%" height="100%" viewBox="0 0 8 8" version="1.1" xmlns="http://www.w3.org/2000/svg" xmlns:xlink="http://www.w3.org/1999/xlink" xml:space="preserve" xmlns:serif="http://www.serif.com/" style="fill-rule:evenodd;clip-rule:evenodd;stroke-linejoin:round;stroke-miterlimit:2;">
    <g transform="matrix(1,0,0,1,-240.181,-222.988)">
        <g transform="matrix(0.276924,0,0,0.276924,167.977,174.414)">
            <rect x="260.737" y="175.405" width="28.889" height="28.889" style="fill:rgb(128,128,128);fill-opacity:0.06;"/>
            <clipPath id="_clip1">
                <rect x="260.737" y="175.405" width="28.889" height="28.889"/>
            </clipPath>
            <g clip-path="url(#_clip1)">
                <g transform="matrix(1.00463,0,0,1.00463,47.4132,-95.8896)">
                    <circle cx="212.324" cy="270.153" r="3.511" style="fill:rgb(189,189,189);"/>
                </g>
                <g transform="matrix(1.00463,0,0,1.00463,76.3157,-95.9958)">
                    <circle cx="212.324" cy="270.153" r="3.511" style="fill:rgb(189,189,189);"/>
                </g>
                <g transform="matrix(1.00463,0,0,1.00463,76.3491,-67.2511)">
                    <circle cx="212.324" cy="270.153" r="3.511" style="fill:rgb(189,189,189);"/>
                </g>
                <g transform="matrix(1.00463,0,0,1.00463,44.5856,-67.2511)">
                    <circle cx="212.324" cy="270.153" r="3.511" style="fill:rgb(189,189,189);"/>
                </g>
                <g transform="matrix(1.00463,0,0,1.00463,47.4405,-67.1212)">
                    <circle cx="212.324" cy="270.153" r="3.511" style="fill:rgb(189,189,189);"/>
                </g>
            </g>
        </g>
    </g>
</svg>
